<?xml version="1.0" ?><!DOCTYPE svg  PUBLIC '-//W3C//DTD SVG 1.1//EN'  'http://www.w3.org/Graphics/SVG/1.1/DTD/svg11.dtd'><svg enable-background="new 0 0 16 16" height="16px" id="Layer_1" version="1.1" viewBox="0 0 16 16" width="16px" xml:space="preserve" xmlns="http://www.w3.org/2000/svg" xmlns:xlink="http://www.w3.org/1999/xlink"><g><defs><rect height="16" id="SVGID_1_" width="16"/></defs><path d="M13.881,4.932C13.952,4.63,14,4.323,14,4c0-2.209-1.79-4-4-4   C8.446,0,7.114,0.897,6.452,2.19C6.159,2.068,5.838,2,5.501,2C4.149,2,3.055,3.077,3.009,4.416C1.816,4.938,1.001,5.896,1.001,7   c0,1.65,1.799,3,4,3h0.5l-1.5,2h2.5l-2.5,4L10,11H7.001l1-1H11c2.201,0,4-1.35,4-3C15,6.2,14.57,5.471,13.881,4.932" fill="#1D1D1B"/></g></svg>